<svg width="20" height="20" viewBox="0 0 20 20" fill="none" xmlns="http://www.w3.org/2000/svg">
<path d="M15.1513 8.85416C14.7572 8.85416 14.4455 8.53333 14.4455 8.14833C14.4455 7.80916 14.1063 7.10333 13.538 6.48916C12.9788 5.89333 12.3647 5.545 11.8513 5.545C11.4572 5.545 11.1455 5.22416 11.1455 4.83916C11.1455 4.45416 11.4663 4.13333 11.8513 4.13333C12.768 4.13333 13.7305 4.62833 14.5738 5.5175C15.3622 6.35166 15.8663 7.3875 15.8663 8.13916C15.8663 8.53333 15.5455 8.85416 15.1513 8.85416Z" fill="white"/>
<path d="M18.4601 8.85418C18.066 8.85418 17.7543 8.53334 17.7543 8.14834C17.7543 4.89418 15.1051 2.25418 11.8601 2.25418C11.466 2.25418 11.1543 1.93334 11.1543 1.54834C11.1543 1.16334 11.466 0.833344 11.851 0.833344C15.8843 0.833344 19.166 4.11501 19.166 8.14834C19.166 8.53334 18.8451 8.85418 18.4601 8.85418Z" fill="white"/>
<path d="M9.12884 12.7042L7.43301 14.4C7.07551 14.7575 6.50717 14.7575 6.14051 14.4092C6.03967 14.3083 5.93884 14.2167 5.83801 14.1158C4.89384 13.1625 4.04134 12.1633 3.28051 11.1183C2.52884 10.0733 1.92384 9.02834 1.48384 7.99251C1.05301 6.94751 0.833008 5.94834 0.833008 4.99501C0.833008 4.37168 0.943008 3.77584 1.16301 3.22584C1.38301 2.66668 1.73134 2.15334 2.21717 1.69501C2.80384 1.11751 3.44551 0.833344 4.12384 0.833344C4.38051 0.833344 4.63717 0.888344 4.86634 0.998344C5.10467 1.10834 5.31551 1.27334 5.48051 1.51168L7.60717 4.50918C7.77217 4.73834 7.89134 4.94918 7.97384 5.15084C8.05634 5.34334 8.10217 5.53584 8.10217 5.71001C8.10217 5.93001 8.03801 6.15001 7.90967 6.36084C7.79051 6.57168 7.61634 6.79168 7.39634 7.01168L6.69967 7.73584C6.59884 7.83668 6.55301 7.95584 6.55301 8.10251C6.55301 8.17584 6.56217 8.24001 6.58051 8.31334C6.60801 8.38668 6.63551 8.44168 6.65384 8.49668C6.81884 8.79918 7.10301 9.19334 7.50634 9.67001C7.91884 10.1467 8.35884 10.6325 8.83551 11.1183C8.92717 11.21 9.02801 11.3017 9.11967 11.3933C9.48634 11.7508 9.49551 12.3375 9.12884 12.7042Z" fill="white"/>
<path d="M19.139 15.8025C19.139 16.0592 19.0931 16.325 19.0015 16.5817C18.974 16.655 18.9465 16.7283 18.9098 16.8017C18.754 17.1317 18.5523 17.4433 18.2865 17.7367C17.8373 18.2317 17.3423 18.5892 16.7831 18.8183C16.774 18.8183 16.7648 18.8275 16.7556 18.8275C16.2148 19.0475 15.6281 19.1667 14.9956 19.1667C14.0606 19.1667 13.0615 18.9467 12.0073 18.4975C10.9531 18.0483 9.89897 17.4433 8.85397 16.6825C8.49647 16.4167 8.13897 16.1508 7.7998 15.8667L10.7973 12.8692C11.054 13.0617 11.2831 13.2083 11.4756 13.3092C11.5215 13.3275 11.5765 13.355 11.6406 13.3825C11.714 13.41 11.7873 13.4192 11.8698 13.4192C12.0256 13.4192 12.1448 13.3642 12.2456 13.2633L12.9423 12.5758C13.1715 12.3467 13.3915 12.1725 13.6023 12.0625C13.8131 11.9342 14.024 11.87 14.2531 11.87C14.4273 11.87 14.6106 11.9067 14.8123 11.9892C15.014 12.0717 15.2248 12.1908 15.454 12.3467L18.4881 14.5008C18.7265 14.6658 18.8915 14.8583 18.9923 15.0875C19.084 15.3167 19.139 15.5458 19.139 15.8025Z" fill="white"/>
</svg>
