<svg width="20" height="20" viewBox="0 0 20 20" fill="none" xmlns="http://www.w3.org/2000/svg">
<path d="M14.1998 0H5.81977C2.17977 0 0.00976562 2.17 0.00976562 5.81V14.18C0.00976562 17.83 2.17977 20 5.81977 20H14.1898C17.8298 20 19.9998 17.83 19.9998 14.19V5.81C20.0098 2.17 17.8398 0 14.1998 0ZM14.7898 7.7L9.11977 13.37C8.97976 13.51 8.78977 13.59 8.58977 13.59C8.38977 13.59 8.19977 13.51 8.05977 13.37L5.22977 10.54C4.93977 10.25 4.93977 9.77 5.22977 9.48C5.51977 9.19 5.99977 9.19 6.28977 9.48L8.58977 11.78L13.7298 6.64C14.0198 6.35 14.4998 6.35 14.7898 6.64C15.0798 6.93 15.0798 7.4 14.7898 7.7Z" fill="#F46801"/>
</svg>
