<svg width="22" height="22" viewBox="0 0 22 22" fill="none" xmlns="http://www.w3.org/2000/svg">
<path d="M1 19L1 6.99988C1 5.89531 1.89543 4.99988 3 4.99988L15.0001 4.99988C16.1046 4.99988 17.0001 5.89531 17.0001 6.99988V19C17.0001 20.1045 16.1046 21 15.0001 21H3C1.89543 21 1 20.1045 1 19Z" fill="white" stroke="#F46801" stroke-width="2" stroke-linecap="round"/>
<path d="M5.00098 15.0001L5.00098 3C5.00098 1.89543 5.89641 1 7.00098 1L19.001 1C20.1056 1 21.001 1.89543 21.001 3V15.0001C21.001 16.1046 20.1056 17.0001 19.001 17.0001H7.00098C5.89641 17.0001 5.00098 16.1046 5.00098 15.0001Z" fill="white" stroke="#F46801" stroke-width="2" stroke-linecap="round"/>
<path d="M10 12.0003L15 7.00031" stroke="#F46801" stroke-width="2" stroke-linecap="round" stroke-linejoin="round"/>
<path d="M15.8021 10.6401V6.00006H11.1621" stroke="#F46801" stroke-width="2" stroke-linecap="round" stroke-linejoin="round"/>
</svg>
