<svg width="21" height="23" viewBox="0 0 21 23" fill="none" xmlns="http://www.w3.org/2000/svg">
<path d="M5.75 2.875V1.375C5.75 0.965 5.41 0.625 5 0.625C4.59 0.625 4.25 0.965 4.25 1.375V2.935C4.5 2.905 4.73 2.875 5 2.875H5.75Z" fill="white"/>
<path d="M13.75 2.935V1.375C13.75 0.965 13.41 0.625 13 0.625C12.59 0.625 12.25 0.965 12.25 1.375V2.875H13C13.27 2.875 13.5 2.905 13.75 2.935Z" fill="white"/>
<path d="M19.29 14.345C18.52 13.735 17.55 13.375 16.5 13.375C15.45 13.375 14.46 13.745 13.69 14.365C12.65 15.185 12 16.465 12 17.875C12 18.715 12.24 19.525 12.65 20.185C12.97 20.705 13.38 21.165 13.87 21.515C14.61 22.055 15.51 22.375 16.5 22.375C17.64 22.375 18.67 21.955 19.46 21.255C19.81 20.965 20.11 20.605 20.35 20.195C20.76 19.525 21 18.715 21 17.875C21 16.445 20.33 15.165 19.29 14.345ZM16.5 20.015C16.5 18.835 15.54 17.875 14.36 17.875C15.54 17.875 16.5 16.915 16.5 15.735C16.5 16.915 17.46 17.875 18.64 17.875C17.46 17.875 16.5 18.835 16.5 20.015Z" fill="white"/>
<path d="M13.75 2.935V4.375C13.75 4.785 13.41 5.125 13 5.125C12.59 5.125 12.25 4.785 12.25 4.375V2.875H5.75V4.375C5.75 4.785 5.41 5.125 5 5.125C4.59 5.125 4.25 4.785 4.25 4.375V2.935C1.3 3.205 0 5.105 0 7.875V16.375C0 19.375 1.5 21.375 5 21.375H9.13C9.89 21.375 10.4 20.525 10.21 19.785C10.07 19.245 10 18.685 10 18.125C10 16.045 10.93 14.125 12.54 12.855C13.71 11.905 15.21 11.375 16.75 11.375H16.79C17.42 11.375 18 10.915 18 10.285V7.875C18 5.105 16.7 3.205 13.75 2.935ZM7 16.125H5C4.59 16.125 4.25 15.785 4.25 15.375C4.25 14.965 4.59 14.625 5 14.625H7C7.41 14.625 7.75 14.965 7.75 15.375C7.75 15.785 7.41 16.125 7 16.125ZM10 11.125H5C4.59 11.125 4.25 10.785 4.25 10.375C4.25 9.965 4.59 9.625 5 9.625H10C10.41 9.625 10.75 9.965 10.75 10.375C10.75 10.785 10.41 11.125 10 11.125Z" fill="white"/>
</svg>
